<?xml version="1.0" encoding="UTF-8" standalone="no"?><svg xmlns="http://www.w3.org/2000/svg" xmlns:xlink="http://www.w3.org/1999/xlink" contentStyleType="text/css" height="559px" preserveAspectRatio="none" style="width:2054px;height:559px;background:#FFFFFF;" version="1.1" viewBox="0 0 2054 559" width="2054px" zoomAndPan="magnify"><defs/><g><!--MD5=[8887cb32b15b61db5dcf9e888af2e348]
cluster GenericRepository.Services.EFCore--><g id="cluster_GenericRepository.Services.EFCore"><path d="M8.5,6 L263.5,6 A3.75,3.75 0 0 1 266,8.5 L273,29.6094 L2044.5,29.6094 A2.5,2.5 0 0 1 2047,32.1094 L2047,549.5 A2.5,2.5 0 0 1 2044.5,552 L8.5,552 A2.5,2.5 0 0 1 6,549.5 L6,8.5 A2.5,2.5 0 0 1 8.5,6 " fill="none" style="stroke:#000000;stroke-width:1.5;"/><line style="stroke:#000000;stroke-width:1.5;" x1="6" x2="273" y1="29.6094" y2="29.6094"/><text fill="#000000" font-family="sans-serif" font-size="14" font-weight="bold" lengthAdjust="spacing" textLength="254" x="10" y="22.5332">GenericRepository.Services.EFCore</text></g><!--MD5=[3c7240177b1cf53682f0bfcf45a19c6a]
class CommonGenericDbRepository--><g id="elem_CommonGenericDbRepository"><rect codeLine="3" fill="#F1F1F1" height="210.4844" id="CommonGenericDbRepository" rx="2.5" ry="2.5" style="stroke:#181818;stroke-width:0.5;" width="1015" x="561.5" y="42"/><ellipse cx="968.75" cy="58" fill="#A9DCDF" rx="11" ry="11" style="stroke:#181818;stroke-width:1.0;"/><path d="M970.9375,59.7656 L966.7969,59.7656 L966.375,60.7969 L966.7969,60.7969 Q967.4063,60.7969 967.6719,61.0313 Q967.9375,61.2656 967.9375,61.6563 Q967.9375,62.0313 967.6719,62.2656 Q967.4063,62.5 966.7969,62.5 L964.5,62.5 Q963.8906,62.5 963.6406,62.2656 Q963.375,62.0313 963.375,61.6406 Q963.375,61.2656 963.6563,61.0313 Q963.9219,60.7813 964.5469,60.7969 L967.2188,54.1406 L966.1094,54.1406 Q965.5,54.1406 965.2344,53.9063 Q964.9688,53.6719 964.9688,53.2813 Q964.9688,52.9063 965.2344,52.6719 Q965.5,52.4375 966.1094,52.4375 L969.7813,52.4375 L973.1719,60.7969 Q973.7656,60.7969 973.9531,60.9375 Q974.3438,61.2031 974.3438,61.6563 Q974.3438,62.0313 974.0781,62.2656 Q973.8281,62.5 973.2188,62.5 L970.9219,62.5 Q970.3125,62.5 970.0469,62.2656 Q969.7813,62.0313 969.7813,61.6406 Q969.7813,61.2656 970.0469,61.0313 Q970.3125,60.7969 970.9219,60.7969 L971.3438,60.7969 L970.9375,59.7656 Z M970.2188,58.0625 L968.8594,54.6875 L967.4844,58.0625 L970.2188,58.0625 Z " fill="#000000"/><text fill="#000000" font-family="sans-serif" font-size="14" font-style="italic" lengthAdjust="spacing" textLength="192" x="989.25" y="63.7285">CommonGenericDbRepository</text><line style="stroke:#181818;stroke-width:0.5;" x1="562.5" x2="1575.5" y1="74" y2="74"/><polygon fill="none" points="572.5,104.9141,576.5,108.9141,572.5,112.9141,568.5,108.9141" style="stroke:#B38D22;stroke-width:1.0;"/><text fill="#000000" font-family="sans-serif" font-size="14" lengthAdjust="spacing" textLength="126" x="581.5" y="114.1426">Context : DbContext</text><ellipse cx="572.5" cy="127.5234" fill="none" rx="3" ry="3" style="stroke:#038048;stroke-width:1.0;"/><text fill="#000000" font-family="sans-serif" font-size="14" lengthAdjust="spacing" textLength="189" x="581.5" y="131.752">SetAsNoTracking : bool = true</text><line style="stroke:#181818;stroke-width:1.0;" x1="562.5" x2="1036.5" y1="90.8047" y2="90.8047"/><text fill="#000000" font-family="sans-serif" font-size="14" lengthAdjust="spacing" textLength="65" x="1036.5" y="96.0332">Properties</text><line style="stroke:#181818;stroke-width:1.0;" x1="1101.5" x2="1575.5" y1="90.8047" y2="90.8047"/><polygon fill="#FFFF44" points="572.5,161.7422,576.5,165.7422,572.5,169.7422,568.5,165.7422" style="stroke:#B38D22;stroke-width:1.0;"/><text fill="#000000" font-family="sans-serif" font-size="14" lengthAdjust="spacing" textLength="325" x="581.5" y="170.9707">CommonGenericDbRepository(context : DbContext)</text><line style="stroke:#181818;stroke-width:1.0;" x1="562.5" x2="1028.5" y1="147.6328" y2="147.6328"/><text fill="#000000" font-family="sans-serif" font-size="14" lengthAdjust="spacing" textLength="81" x="1028.5" y="152.8613">Constrcutors</text><line style="stroke:#181818;stroke-width:1.0;" x1="1109.5" x2="1575.5" y1="147.6328" y2="147.6328"/><rect fill="#F24D5C" height="6" style="stroke:#C82930;stroke-width:1.0;" width="6" x="569.5" y="202.9609"/><text fill="#000000" font-family="sans-serif" font-size="14" lengthAdjust="spacing" textLength="783" x="581.5" y="210.1895">SortEntities&lt;TType&gt;(IQueryable&lt;TType&gt; entities, string sortingFieldName, SortingOrder sortingOrder) : IQueryable&lt;TType&gt;</text><polygon fill="#FFFF44" points="572.5,218.5703,576.5,222.5703,572.5,226.5703,568.5,222.5703" style="stroke:#B38D22;stroke-width:1.0;"/><text fill="#000000" font-family="sans-serif" font-size="14" lengthAdjust="spacing" textLength="989" x="581.5" y="227.7988">List&lt;TType, TDestination&gt;(entities : IQueryable&lt;TType&gt;, [Required] options : ComplexDataModelOptions&lt;TType, TDestination&gt;) : IQueryable&lt;TDestination&gt;</text><polygon fill="#FFFF44" points="572.5,236.1797,576.5,240.1797,572.5,244.1797,568.5,240.1797" style="stroke:#B38D22;stroke-width:1.0;"/><text fill="#000000" font-family="sans-serif" font-size="14" lengthAdjust="spacing" textLength="720" x="581.5" y="245.4082">List&lt;TType&gt;(entities : IQueryable&lt;TType&gt;, [Required] options : DataModelOptions&lt;TType&gt;) : IQueryable&lt;TType&gt;</text><line style="stroke:#181818;stroke-width:1.0;" x1="562.5" x2="1042" y1="186.8516" y2="186.8516"/><text fill="#000000" font-family="sans-serif" font-size="14" lengthAdjust="spacing" textLength="54" x="1042" y="192.0801">Methods</text><line style="stroke:#181818;stroke-width:1.0;" x1="1096" x2="1575.5" y1="186.8516" y2="186.8516"/></g><!--MD5=[3718a0cd48487d738325c548dbcedfea]
class GenericAsyncDatabaseRepository--><g id="elem_GenericAsyncDatabaseRepository"><rect codeLine="15" fill="#F1F1F1" height="224.0938" id="GenericAsyncDatabaseRepository" rx="2.5" ry="2.5" style="stroke:#181818;stroke-width:0.5;" width="1185" x="22.5" y="312"/><ellipse cx="481.75" cy="328" fill="#ADD1B2" rx="11" ry="11" style="stroke:#181818;stroke-width:1.0;"/><path d="M484.5156,323.875 Q484.6719,323.6563 484.8594,323.5469 Q485.0469,323.4375 485.2656,323.4375 Q485.6406,323.4375 485.875,323.7031 Q486.1094,323.9531 486.1094,324.5625 L486.1094,326.0156 Q486.1094,326.625 485.875,326.8906 Q485.6406,327.1563 485.2656,327.1563 Q484.9219,327.1563 484.7188,326.9531 Q484.5156,326.7656 484.4063,326.25 Q484.3594,325.8906 484.1719,325.7031 Q483.8438,325.3281 483.2344,325.1094 Q482.625,324.8906 482,324.8906 Q481.2344,324.8906 480.5938,325.2188 Q479.9688,325.5469 479.4688,326.2969 Q478.9844,327.0469 478.9844,328.0781 L478.9844,329.1719 Q478.9844,330.4063 479.875,331.2344 Q480.7656,332.0469 482.3594,332.0469 Q483.2969,332.0469 483.9531,331.7969 Q484.3438,331.6406 484.7656,331.2031 Q485.0313,330.9375 485.1719,330.8594 Q485.3281,330.7813 485.5313,330.7813 Q485.8594,330.7813 486.1094,331.0469 Q486.375,331.2969 486.375,331.6406 Q486.375,331.9844 486.0313,332.3906 Q485.5313,332.9688 484.7344,333.2969 Q483.6563,333.75 482.3594,333.75 Q480.8438,333.75 479.6406,333.125 Q478.6563,332.625 477.9688,331.5625 Q477.2813,330.4844 477.2813,329.2031 L477.2813,328.0469 Q477.2813,326.7188 477.8906,325.5781 Q478.5156,324.4219 479.6094,323.8125 Q480.7031,323.1875 481.9375,323.1875 Q482.6719,323.1875 483.3125,323.3594 Q483.9688,323.5156 484.5156,323.875 Z " fill="#000000"/><text fill="#000000" font-family="sans-serif" font-size="14" lengthAdjust="spacing" textLength="217" x="502.25" y="333.7285">GenericAsyncDatabaseRepository</text><rect fill="#FFFFFF" height="17.0938" style="stroke:#181818;stroke-width:1.0;stroke-dasharray:2.0,2.0;" width="39" x="1171.5" y="309"/><text fill="#000000" font-family="sans-serif" font-size="12" font-style="italic" lengthAdjust="spacing" textLength="37" x="1172.5" y="322.457">TEntity</text><line style="stroke:#181818;stroke-width:0.5;" x1="23.5" x2="1206.5" y1="344" y2="344"/><ellipse cx="33.5" cy="379.9141" fill="#84BE84" rx="3" ry="3" style="stroke:#038048;stroke-width:1.0;"/><text fill="#000000" font-family="sans-serif" font-size="14" lengthAdjust="spacing" textLength="350" x="42.5" y="384.1426">GenericAsyncDatabaseRepository(context : DbContext)</text><line style="stroke:#181818;stroke-width:1.0;" x1="23.5" x2="574.5" y1="360.8047" y2="360.8047"/><text fill="#000000" font-family="sans-serif" font-size="14" lengthAdjust="spacing" textLength="81" x="574.5" y="366.0332">Constructors</text><line style="stroke:#181818;stroke-width:1.0;" x1="655.5" x2="1206.5" y1="360.8047" y2="360.8047"/><ellipse cx="33.5" cy="419.1328" fill="#84BE84" rx="3" ry="3" style="stroke:#038048;stroke-width:1.0;"/><text fill="#000000" font-family="sans-serif" font-size="14" lengthAdjust="spacing" textLength="791" x="42.5" y="423.3613">GetAsync([Required] options : DataModelOptions&lt;TEntity&gt;, cancellationToken : CancellationToken = default) : Task&lt;TEntity&gt;</text><ellipse cx="33.5" cy="436.7422" fill="#84BE84" rx="3" ry="3" style="stroke:#038048;stroke-width:1.0;"/><text fill="#000000" font-family="sans-serif" font-size="14" lengthAdjust="spacing" textLength="1065" x="42.5" y="440.9707">GetAsync&lt;TDestination&gt;([Required] options : ComplexDataModelOptions&lt;TEntity, TDestination&gt;, cancellationToken : CancellationToken = default) : Task&lt;TDestination&gt;</text><ellipse cx="33.5" cy="454.3516" fill="#84BE84" rx="3" ry="3" style="stroke:#038048;stroke-width:1.0;"/><text fill="#000000" font-family="sans-serif" font-size="14" lengthAdjust="spacing" textLength="885" x="42.5" y="458.5801">ListAsync([Required] options : DataModelOptions&lt;TEntity&gt;, cancellationToken : CancellationToken = default) : Task&lt;IEnumerable&lt;TEntity&gt;&gt;</text><ellipse cx="33.5" cy="471.9609" fill="#84BE84" rx="3" ry="3" style="stroke:#038048;stroke-width:1.0;"/><text fill="#000000" font-family="sans-serif" font-size="14" lengthAdjust="spacing" textLength="1159" x="42.5" y="476.1895">ListAsync&lt;TDestination&gt;([Required] options : ComplexDataModelOptions&lt;TEntity, TDestination&gt;, cancellationToken : CancellationToken = default) : Task&lt;IEnumerable&lt;TDestination&gt;&gt;</text><ellipse cx="33.5" cy="489.5703" fill="#84BE84" rx="3" ry="3" style="stroke:#038048;stroke-width:1.0;"/><text fill="#000000" font-family="sans-serif" font-size="14" lengthAdjust="spacing" textLength="606" x="42.5" y="493.7988">CreateAsync([Required] entity : TEntity, cancellationToken : CancellationToken = default) : Task</text><ellipse cx="33.5" cy="507.1797" fill="#84BE84" rx="3" ry="3" style="stroke:#038048;stroke-width:1.0;"/><text fill="#000000" font-family="sans-serif" font-size="14" lengthAdjust="spacing" textLength="997" x="42.5" y="511.4082">UpdateAsync([Required] searchClause : Expression&lt;Func&lt;TEntity, bool&gt;&gt;, [Required] entity : TEntity, cancellationToken : CancellationToken = default) : Task</text><ellipse cx="33.5" cy="524.7891" fill="#84BE84" rx="3" ry="3" style="stroke:#038048;stroke-width:1.0;"/><text fill="#000000" font-family="sans-serif" font-size="14" lengthAdjust="spacing" textLength="817" x="42.5" y="529.0176">Task DeleteAsync([Required] searchClause : Expression&lt;Func&lt;TEntity, bool&gt;&gt;, cancellationToken : CancellationToken = default)</text><line style="stroke:#181818;stroke-width:1.0;" x1="23.5" x2="588" y1="400.0234" y2="400.0234"/><text fill="#000000" font-family="sans-serif" font-size="14" lengthAdjust="spacing" textLength="54" x="588" y="405.252">Methods</text><line style="stroke:#181818;stroke-width:1.0;" x1="642" x2="1206.5" y1="400.0234" y2="400.0234"/></g><!--MD5=[51f6a7f5138fbb031c5728c13e9f8205]
class GenericDatabaseRepository--><g id="elem_GenericDatabaseRepository"><rect codeLine="28" fill="#F1F1F1" height="224.0938" id="GenericDatabaseRepository" rx="2.5" ry="2.5" style="stroke:#181818;stroke-width:0.5;" width="788" x="1243" y="312"/><ellipse cx="1522.75" cy="328" fill="#ADD1B2" rx="11" ry="11" style="stroke:#181818;stroke-width:1.0;"/><path d="M1525.5156,323.875 Q1525.6719,323.6563 1525.8594,323.5469 Q1526.0469,323.4375 1526.2656,323.4375 Q1526.6406,323.4375 1526.875,323.7031 Q1527.1094,323.9531 1527.1094,324.5625 L1527.1094,326.0156 Q1527.1094,326.625 1526.875,326.8906 Q1526.6406,327.1563 1526.2656,327.1563 Q1525.9219,327.1563 1525.7188,326.9531 Q1525.5156,326.7656 1525.4063,326.25 Q1525.3594,325.8906 1525.1719,325.7031 Q1524.8438,325.3281 1524.2344,325.1094 Q1523.625,324.8906 1523,324.8906 Q1522.2344,324.8906 1521.5938,325.2188 Q1520.9688,325.5469 1520.4688,326.2969 Q1519.9844,327.0469 1519.9844,328.0781 L1519.9844,329.1719 Q1519.9844,330.4063 1520.875,331.2344 Q1521.7656,332.0469 1523.3594,332.0469 Q1524.2969,332.0469 1524.9531,331.7969 Q1525.3438,331.6406 1525.7656,331.2031 Q1526.0313,330.9375 1526.1719,330.8594 Q1526.3281,330.7813 1526.5313,330.7813 Q1526.8594,330.7813 1527.1094,331.0469 Q1527.375,331.2969 1527.375,331.6406 Q1527.375,331.9844 1527.0313,332.3906 Q1526.5313,332.9688 1525.7344,333.2969 Q1524.6563,333.75 1523.3594,333.75 Q1521.8438,333.75 1520.6406,333.125 Q1519.6563,332.625 1518.9688,331.5625 Q1518.2813,330.4844 1518.2813,329.2031 L1518.2813,328.0469 Q1518.2813,326.7188 1518.8906,325.5781 Q1519.5156,324.4219 1520.6094,323.8125 Q1521.7031,323.1875 1522.9375,323.1875 Q1523.6719,323.1875 1524.3125,323.3594 Q1524.9688,323.5156 1525.5156,323.875 Z " fill="#000000"/><text fill="#000000" font-family="sans-serif" font-size="14" lengthAdjust="spacing" textLength="179" x="1543.25" y="333.7285">GenericDatabaseRepository</text><rect fill="#FFFFFF" height="17.0938" style="stroke:#181818;stroke-width:1.0;stroke-dasharray:2.0,2.0;" width="39" x="1995" y="309"/><text fill="#000000" font-family="sans-serif" font-size="12" font-style="italic" lengthAdjust="spacing" textLength="37" x="1996" y="322.457">TEntity</text><line style="stroke:#181818;stroke-width:0.5;" x1="1244" x2="2030" y1="344" y2="344"/><ellipse cx="1254" cy="379.9141" fill="#84BE84" rx="3" ry="3" style="stroke:#038048;stroke-width:1.0;"/><text fill="#000000" font-family="sans-serif" font-size="14" lengthAdjust="spacing" textLength="304" x="1263" y="384.1426">GenericDatabaseRepository(DbContext context)</text><line style="stroke:#181818;stroke-width:1.0;" x1="1244" x2="1596.5" y1="360.8047" y2="360.8047"/><text fill="#000000" font-family="sans-serif" font-size="14" lengthAdjust="spacing" textLength="81" x="1596.5" y="366.0332">Constructors</text><line style="stroke:#181818;stroke-width:1.0;" x1="1677.5" x2="2030" y1="360.8047" y2="360.8047"/><ellipse cx="1254" cy="419.1328" fill="#84BE84" rx="3" ry="3" style="stroke:#038048;stroke-width:1.0;"/><text fill="#000000" font-family="sans-serif" font-size="14" lengthAdjust="spacing" textLength="394" x="1263" y="423.3613">Get([Required] options : DataModelOptions&lt;TEntity&gt;) : TEntity</text><ellipse cx="1254" cy="436.7422" fill="#84BE84" rx="3" ry="3" style="stroke:#038048;stroke-width:1.0;"/><text fill="#000000" font-family="sans-serif" font-size="14" lengthAdjust="spacing" textLength="668" x="1263" y="440.9707">Get&lt;TDestination&gt;([Required] options : ComplexDataModelOptions&lt;TEntity, TDestination&gt;) : TDestination</text><ellipse cx="1254" cy="454.3516" fill="#84BE84" rx="3" ry="3" style="stroke:#038048;stroke-width:1.0;"/><text fill="#000000" font-family="sans-serif" font-size="14" lengthAdjust="spacing" textLength="488" x="1263" y="458.5801">List([Required] options : DataModelOptions&lt;TEntity&gt;) : IEnumerable&lt;TEntity&gt;</text><ellipse cx="1254" cy="471.9609" fill="#84BE84" rx="3" ry="3" style="stroke:#038048;stroke-width:1.0;"/><text fill="#000000" font-family="sans-serif" font-size="14" lengthAdjust="spacing" textLength="762" x="1263" y="476.1895">List&lt;TDestination&gt;([Required] options : ComplexDataModelOptions&lt;TEntity, TDestination&gt;) : IEnumerable&lt;TDestination&gt;</text><ellipse cx="1254" cy="489.5703" fill="#84BE84" rx="3" ry="3" style="stroke:#038048;stroke-width:1.0;"/><text fill="#000000" font-family="sans-serif" font-size="14" lengthAdjust="spacing" textLength="251" x="1263" y="493.7988">Create([Required] entity : TEntity) : void</text><ellipse cx="1254" cy="507.1797" fill="#84BE84" rx="3" ry="3" style="stroke:#038048;stroke-width:1.0;"/><text fill="#000000" font-family="sans-serif" font-size="14" lengthAdjust="spacing" textLength="642" x="1263" y="511.4082">Update([Required] searchClause : Expression&lt;Func&lt;TEntity, bool&gt;&gt;, [Required] entity : TEntity) : void</text><ellipse cx="1254" cy="524.7891" fill="#84BE84" rx="3" ry="3" style="stroke:#038048;stroke-width:1.0;"/><text fill="#000000" font-family="sans-serif" font-size="14" lengthAdjust="spacing" textLength="470" x="1263" y="529.0176">Delete([Required] searchClause : Expression&lt;Func&lt;TEntity, bool&gt;&gt;) : void</text><line style="stroke:#181818;stroke-width:1.0;" x1="1244" x2="1610" y1="400.0234" y2="400.0234"/><text fill="#000000" font-family="sans-serif" font-size="14" lengthAdjust="spacing" textLength="54" x="1610" y="405.252">Methods</text><line style="stroke:#181818;stroke-width:1.0;" x1="1664" x2="2030" y1="400.0234" y2="400.0234"/></g><!--MD5=[de15fc36df49458d148f68baa093374c]
reverse link CommonGenericDbRepository to GenericAsyncDatabaseRepository--><g id="link_CommonGenericDbRepository_GenericAsyncDatabaseRepository"><path d="M879.9,262.54 C852.93,278.88 825.23,295.66 798.38,311.92 " fill="none" id="CommonGenericDbRepository-backto-GenericAsyncDatabaseRepository" style="stroke:#181818;stroke-width:1.0;"/><polygon fill="none" points="876.31,256.54,897.04,252.16,883.56,268.51,876.31,256.54" style="stroke:#181818;stroke-width:1.0;"/></g><!--MD5=[d6a71fe299cbbef789a9f94717f2f5a5]
reverse link CommonGenericDbRepository to GenericDatabaseRepository--><g id="link_CommonGenericDbRepository_GenericDatabaseRepository"><path d="M1302.23,260.92 C1337.02,277.76 1372.86,295.12 1407.57,311.92 " fill="none" id="CommonGenericDbRepository-backto-GenericDatabaseRepository" style="stroke:#181818;stroke-width:1.0;"/><polygon fill="none" points="1299.09,267.18,1284.14,252.16,1305.19,254.58,1299.09,267.18" style="stroke:#181818;stroke-width:1.0;"/></g><!--MD5=[fc622b733041713a6ebd8ba0c1bab232]
@startuml OperationResult

package GenericRepository.Services.EFCore {
   abstract class CommonGenericDbRepository {
        - - Properties - -
        # Context : DbContext
        + SetAsNoTracking : bool = true
        - - Constrcutors - -
        # CommonGenericDbRepository(context : DbContext)
        - - Methods - -
        - SortEntities<TType>(IQueryable<TType> entities, string sortingFieldName, SortingOrder sortingOrder) : IQueryable<TType>
        # List<TType, TDestination>(entities : IQueryable<TType>, [Required] options : ComplexDataModelOptions<TType, TDestination>) : IQueryable<TDestination>
        #  List<TType>(entities : IQueryable<TType>, [Required] options : DataModelOptions<TType>) : IQueryable<TType>
    }

    class GenericAsyncDatabaseRepository<TEntity> extends CommonGenericDbRepository {
        - - Constructors - -
        + GenericAsyncDatabaseRepository(context : DbContext)
        - - Methods - -
        + GetAsync([Required] options : DataModelOptions<TEntity>, cancellationToken : CancellationToken = default) : Task<TEntity>
        + GetAsync<TDestination>([Required] options : ComplexDataModelOptions<TEntity, TDestination>, cancellationToken : CancellationToken = default) : Task<TDestination>
        + ListAsync([Required] options : DataModelOptions<TEntity>, cancellationToken : CancellationToken = default) : Task<IEnumerable<TEntity>>
        + ListAsync<TDestination>([Required] options : ComplexDataModelOptions<TEntity, TDestination>, cancellationToken : CancellationToken = default) : Task<IEnumerable<TDestination>>
        + CreateAsync([Required] entity : TEntity, cancellationToken : CancellationToken = default) : Task
        + UpdateAsync([Required] searchClause : Expression<Func<TEntity, bool>>, [Required] entity : TEntity, cancellationToken : CancellationToken = default) : Task
        + Task DeleteAsync([Required] searchClause : Expression<Func<TEntity, bool>>, cancellationToken : CancellationToken = default)
    }

    class GenericDatabaseRepository<TEntity> extends CommonGenericDbRepository {
        - - Constructors - -
        + GenericDatabaseRepository(DbContext context)
        - - Methods - -
        + Get([Required] options : DataModelOptions<TEntity>) : TEntity
        + Get<TDestination>([Required] options : ComplexDataModelOptions<TEntity, TDestination>) : TDestination
        + List([Required] options : DataModelOptions<TEntity>) : IEnumerable<TEntity>
        + List<TDestination>([Required] options : ComplexDataModelOptions<TEntity, TDestination>) : IEnumerable<TDestination>
        + Create([Required] entity : TEntity) : void
        + Update([Required] searchClause : Expression<Func<TEntity, bool>>, [Required] entity : TEntity) : void
        + Delete([Required] searchClause : Expression<Func<TEntity, bool>>) : void
    }
}

@enduml

PlantUML version 1.2022.7(Mon Aug 22 20:01:30 EEST 2022)
(GPL source distribution)
Java Runtime: Java(TM) SE Runtime Environment
JVM: Java HotSpot(TM) 64-Bit Server VM
Default Encoding: UTF-8
Language: en
Country: US
--></g></svg>